<svg width="16" height="16" viewBox="0 0 16 16" fill="none" xmlns="http://www.w3.org/2000/svg">
<g clip-path="url(#clip0_521_11988)">
<path d="M15.9999 8C15.9999 12.4173 12.4179 15.9987 7.99803 15.9994C3.58132 15.9994 -0.000693165 12.4173 -5.30627e-05 7.99936C-0.00133327 3.58144 3.58068 0 7.99931 0C12.4179 0 15.9999 3.58208 15.9999 8Z" fill="#EAB300"/>
<path d="M11.1473 6.0404C11.0443 4.96904 10.1193 4.61 8.95048 4.50759V3.02087H8.04602V4.46791C7.80854 4.46791 7.5653 4.47239 7.32398 4.47751V3.02087H6.41951L6.41887 4.50631C6.223 4.51015 6.03033 4.514 5.84278 4.514V4.50951L4.59522 4.50888V5.47528C4.59522 5.47528 5.26348 5.46248 5.25196 5.47464C5.61874 5.47464 5.7378 5.68712 5.77237 5.8708V7.56424C5.79797 7.56424 5.83062 7.56552 5.86774 7.57064H5.77237L5.77173 9.94312C5.75572 10.0583 5.68787 10.242 5.43183 10.2426C5.44335 10.2529 4.77445 10.2426 4.77445 10.2426L4.59458 11.323H5.77237C5.99128 11.323 6.207 11.3268 6.41823 11.3281L6.41887 12.8314H7.3227V11.3441C7.57042 11.3492 7.81046 11.3511 8.04538 11.3511L8.04474 12.8314H8.9492V11.3313C10.4701 11.2442 11.5359 10.8609 11.6677 9.4324C11.7746 8.28232 11.2337 7.7684 10.3702 7.56104C10.8958 7.2948 11.2241 6.8244 11.1473 6.0404ZM9.88119 9.25448C9.88119 10.3777 7.95768 10.2503 7.34382 10.2503V8.258C7.95768 8.25928 9.88119 8.08328 9.88119 9.25448ZM9.46 6.44424C9.46 7.46632 7.85462 7.34664 7.34382 7.34728V5.5412C7.85526 5.5412 9.46065 5.37864 9.46 6.44424Z" fill="white"/>
<path d="M5.77375 7.52429H5.90817V7.62349H5.77375V7.52429Z" fill="white"/>
</g>
<defs>
<clipPath id="clip0_521_11988">
<rect width="16" height="16" fill="white"/>
</clipPath>
</defs>
</svg>
