<svg width="16" height="16" viewBox="0 0 16 16" fill="none" xmlns="http://www.w3.org/2000/svg">
<g opacity="1">
<path d="M5.90953 12.0569C5.90953 12.1304 5.86358 12.1672 5.77169 12.1672C5.66142 12.1855 5.60629 12.1488 5.60629 12.0569C5.60629 12.0018 5.65224 11.9742 5.74413 11.9742C5.85439 11.9558 5.90953 11.9834 5.90953 12.0569ZM5.16521 12.0845C5.05495 12.0661 5.009 12.0201 5.02738 11.9466C5.06413 11.8731 5.12846 11.8547 5.22035 11.8915C5.31224 11.9099 5.349 11.9558 5.33062 12.0293C5.31224 12.1028 5.25711 12.1212 5.16521 12.0845ZM6.2679 11.8915C6.35979 11.8915 6.40574 11.9191 6.40574 11.9742C6.42412 12.0293 6.38736 12.0753 6.29547 12.112C6.20358 12.1304 6.14844 12.1028 6.13007 12.0293C6.13007 11.9558 6.17601 11.9099 6.2679 11.8915ZM8.08734 1.33325C10.017 1.33325 11.6527 1.98568 12.9943 3.29052C14.3359 4.57699 15.0067 6.1667 15.0067 8.05965C15.0067 9.58503 14.5748 10.9542 13.711 12.1672C12.8657 13.3617 11.7538 14.1888 10.3754 14.6482C10.2284 14.685 10.1089 14.6666 10.017 14.5931C9.94353 14.5196 9.90677 14.4277 9.90677 14.3174C9.90677 14.299 9.90677 14.005 9.90677 13.4353C9.90677 12.8471 9.90677 12.3693 9.90677 12.0018C9.90677 11.4137 9.75056 10.991 9.43813 10.7337C9.84245 10.6785 10.1549 10.6326 10.3754 10.5958C10.596 10.5591 10.8716 10.4764 11.2024 10.3477C11.5332 10.2191 11.7813 10.0537 11.9467 9.85151C12.1305 9.64936 12.2867 9.36449 12.4154 8.99693C12.544 8.62937 12.6084 8.18829 12.6084 7.67371C12.6084 7.32452 12.5532 7.03966 12.443 6.81912C12.3327 6.59859 12.1489 6.35048 11.8916 6.07481C12.1121 5.50509 12.0938 4.88023 11.8365 4.20024C11.6527 4.14511 11.4046 4.18186 11.0922 4.31051C10.7797 4.42078 10.5041 4.54942 10.2651 4.69645L9.93434 4.94455C9.36462 4.77915 8.77652 4.69645 8.17004 4.69645C7.58194 4.69645 7.01222 4.77915 6.46087 4.94455C6.36898 4.87104 6.24033 4.78834 6.07493 4.69645C5.90953 4.58618 5.65224 4.46672 5.30305 4.33808C4.97224 4.19105 4.72414 4.14511 4.55874 4.20024C4.28306 4.88023 4.2555 5.50509 4.47603 6.07481C4.05334 6.53426 3.84199 7.06723 3.84199 7.67371C3.84199 8.18829 3.90631 8.62937 4.03496 8.99693C4.16361 9.36449 4.31063 9.64936 4.47603 9.85151C4.64144 10.0537 4.88035 10.2191 5.19278 10.3477C5.50521 10.4764 5.77169 10.5683 5.99223 10.6234C6.23115 10.6602 6.54357 10.6969 6.92951 10.7337C6.6906 10.9542 6.54357 11.2666 6.48844 11.6709C6.30466 11.7445 6.11169 11.7996 5.90953 11.8364C5.72575 11.8731 5.48683 11.8364 5.19278 11.7261C4.89873 11.6158 4.65982 11.4045 4.47603 11.092C4.36577 10.8899 4.21874 10.7337 4.03496 10.6234C3.86956 10.4948 3.72253 10.4212 3.59388 10.4029L3.42848 10.3753C3.02416 10.3753 3.00578 10.5131 3.37335 10.7888C3.50199 10.8623 3.63064 10.9818 3.75929 11.1472C3.88793 11.3126 3.97983 11.4596 4.03496 11.5882L4.14523 11.8088C4.2555 12.1763 4.5036 12.4336 4.88954 12.5807C5.29386 12.7093 5.66142 12.7461 5.99223 12.6909L6.46087 12.6358C6.46087 12.8563 6.46087 13.1871 6.46087 13.6282C6.47925 14.0693 6.48844 14.299 6.48844 14.3174C6.48844 14.4277 6.44249 14.5196 6.3506 14.5931C6.27709 14.6666 6.16682 14.685 6.0198 14.6482C4.62306 14.1888 3.4928 13.3617 2.62903 12.1672C1.76526 10.9542 1.33337 9.58503 1.33337 8.05965C1.33337 6.14832 1.97661 4.54942 3.26308 3.26296C4.56793 1.97649 6.17601 1.33325 8.08734 1.33325ZM4.00739 10.8439C4.04415 10.8072 4.09009 10.8164 4.14523 10.8715C4.20036 10.9266 4.20955 10.9726 4.1728 11.0093C4.13604 11.0461 4.09009 11.0369 4.03496 10.9818C3.97983 10.9266 3.97064 10.8807 4.00739 10.8439ZM3.70415 10.6234C3.74091 10.5866 3.78685 10.5775 3.84199 10.5958C3.89712 10.6326 3.9155 10.6693 3.89712 10.7061C3.87875 10.7612 3.84199 10.7704 3.78685 10.7337C3.71334 10.6969 3.68577 10.6602 3.70415 10.6234ZM4.61387 11.5882C4.65063 11.5331 4.70576 11.5423 4.77927 11.6158C4.85279 11.6893 4.87116 11.7537 4.83441 11.8088C4.77927 11.8639 4.71495 11.8547 4.64144 11.7812C4.56793 11.7077 4.55874 11.6434 4.61387 11.5882ZM4.28306 11.2023C4.3382 11.1472 4.39333 11.1656 4.44847 11.2574C4.5036 11.331 4.5036 11.3861 4.44847 11.4228C4.39333 11.4596 4.3382 11.4412 4.28306 11.3677C4.24631 11.2758 4.24631 11.2207 4.28306 11.2023Z" fill="white"/>
</g>
</svg>
