<svg width="569" height="825" viewBox="0 0 569 825" fill="none" xmlns="http://www.w3.org/2000/svg">
<path d="M504.196 542.143C504.201 607.096 482.516 670.19 442.581 721.416C406.394 767.835 357.101 802.099 301.298 819.908C292.476 822.724 283.758 815.927 283.758 806.666V723.639C283.758 712.329 290.568 702.273 300.404 696.69C324.907 682.782 345.836 663.2 361.369 639.48C380.314 610.551 390.411 576.724 390.422 542.143C390.428 534.643 389.965 527.15 389.035 519.708C384.061 480.938 366.47 444.881 338.974 417.098C336.343 414.396 333.606 411.801 330.761 409.312C306.593 387.816 277.019 373.32 245.223 367.387C213.428 361.454 180.616 364.308 150.322 375.642C122.779 347.893 105.179 311.819 100.262 273.032C153.937 250.619 213.089 244.774 270.112 256.249C327.135 267.723 379.423 295.992 420.252 337.421C422.669 339.838 425.052 342.327 427.363 344.887C438.386 356.822 448.366 369.681 457.193 383.321C486.379 428.052 502.645 479.974 504.196 533.361C504.196 536.277 504.196 539.192 504.196 542.143Z" fill="url(#paint0_linear_2001_43052)"/>
<path d="M389.037 519.707C353.43 534.556 315.228 542.182 276.649 542.142H270.996C219.302 541.097 168.812 526.347 124.686 499.399C80.5592 472.451 44.3781 434.271 19.8394 388.76C14.5778 379.016 9.8878 368.98 5.79152 358.702C1.93423 349.024 4.35337 338.004 11.9006 330.822C37.5636 306.399 67.4996 286.824 100.264 273.102C105.181 311.889 122.781 347.963 150.324 375.712C154.093 379.504 158.016 383.131 162.093 386.591C185.878 406.643 214.508 420.102 245.123 425.624C275.739 431.145 307.267 428.536 336.558 418.057L338.941 417.168C366.436 444.951 384.027 481.008 389.001 519.778L389.037 519.707Z" fill="url(#paint1_linear_2001_43052)"/>
<path d="M568.19 250.587C568.262 324.676 540.042 395.996 489.295 449.977C481.533 426.508 470.778 404.137 457.296 383.419C448.47 369.778 438.49 356.919 427.466 344.984C445.382 316.326 454.758 283.154 454.493 249.357C454.229 215.56 444.335 182.538 425.973 154.164C447.152 121.29 478.563 96.3013 515.357 83.0547C549.855 132.098 568.313 190.625 568.19 250.587Z" fill="url(#paint2_linear_2001_43052)"/>
<path d="M515.354 83.1974C491.028 91.9088 468.892 105.819 450.491 123.958C432.089 142.097 417.862 164.03 408.802 188.229C399.742 212.427 396.066 238.31 398.03 264.075C399.994 289.839 407.551 314.866 420.175 337.412C382.788 299.325 335.639 272.264 283.895 259.192C283.895 256.276 283.895 253.361 283.895 250.41C283.893 199.93 296.998 150.315 321.928 106.42C344.053 67.4627 374.819 34.1965 411.77 9.13038C420.436 3.25176 431.782 3.26386 440.435 9.16024C469.651 29.0668 495.049 54.1423 515.354 83.1974Z" fill="url(#paint3_linear_2001_43052)"/>
<defs>
<linearGradient id="paint0_linear_2001_43052" x1="26.0404" y1="618.609" x2="324.782" y2="854.596" gradientUnits="userSpaceOnUse">
<stop stop-color="#109464"/>
<stop offset="0.509773" stop-color="#5FE493"/>
<stop offset="1" stop-color="#A1FF8B"/>
</linearGradient>
<linearGradient id="paint1_linear_2001_43052" x1="78.8587" y1="543.667" x2="323.621" y2="564.502" gradientUnits="userSpaceOnUse">
<stop stop-color="#A1FF8B"/>
<stop offset="0.509773" stop-color="#5FE493"/>
<stop offset="1" stop-color="#109464"/>
</linearGradient>
<linearGradient id="paint2_linear_2001_43052" x1="496.541" y1="132.91" x2="349.486" y2="360.258" gradientUnits="userSpaceOnUse">
<stop stop-color="#109464"/>
<stop offset="0.328125" stop-color="#5FE493"/>
<stop offset="0.604167" stop-color="#A1FF8B"/>
<stop offset="1" stop-color="#1A9E6A"/>
</linearGradient>
<linearGradient id="paint3_linear_2001_43052" x1="203.286" y1="260.971" x2="270.011" y2="71.4655" gradientUnits="userSpaceOnUse">
<stop stop-color="#109464"/>
<stop offset="0.509773" stop-color="#5FE493"/>
<stop offset="1" stop-color="#A1FF8B"/>
</linearGradient>
</defs>
</svg>
