<svg width="576" height="214" viewBox="0 0 576 214" fill="none" xmlns="http://www.w3.org/2000/svg">
<path d="M162.636 46.8771H198.304L221.315 94.7408H222.236L245.247 46.8771H280.915L237.653 127.647V164.695H205.898V127.647L162.636 46.8771ZM297.328 166.306C287.74 166.306 279.533 164.408 272.706 160.611C265.879 156.776 260.644 151.445 257.001 144.618C253.357 137.753 251.536 129.795 251.536 120.744C251.536 111.692 253.357 103.754 257.001 96.9268C260.644 90.0618 265.879 84.7308 272.706 80.9339C279.533 77.0987 287.74 75.1811 297.328 75.1811C306.916 75.1811 315.124 77.0987 321.95 80.9339C328.777 84.7308 334.012 90.0618 337.656 96.9268C341.299 103.754 343.121 111.692 343.121 120.744C343.121 129.795 341.299 137.753 337.656 144.618C334.012 151.445 328.777 156.776 321.95 160.611C315.124 164.408 306.916 166.306 297.328 166.306ZM297.558 142.835C300.243 142.835 302.563 141.933 304.519 140.131C306.475 138.328 307.99 135.759 309.064 132.422C310.138 129.085 310.675 125.116 310.675 120.513C310.675 115.873 310.138 111.903 309.064 108.605C307.99 105.268 306.475 102.699 304.519 100.896C302.563 99.0937 300.243 98.1925 297.558 98.1925C294.72 98.1925 292.285 99.0937 290.252 100.896C288.22 102.699 286.666 105.268 285.592 108.605C284.519 111.903 283.982 115.873 283.982 120.513C283.982 125.116 284.519 129.085 285.592 132.422C286.666 135.759 288.22 138.328 290.252 140.131C292.285 141.933 294.72 142.835 297.558 142.835ZM398.725 126.036V76.3317H430.481V164.695H400.336V147.897H399.416C397.498 153.535 394.142 157.945 389.348 161.129C384.554 164.273 378.859 165.846 372.262 165.846C366.088 165.846 360.68 164.427 356.039 161.589C351.437 158.751 347.851 154.839 345.282 149.853C342.75 144.867 341.466 139.153 341.427 132.71V76.3317H373.183V126.036C373.221 130.408 374.333 133.841 376.52 136.334C378.744 138.827 381.85 140.073 385.839 140.073C388.485 140.073 390.767 139.517 392.685 138.405C394.641 137.254 396.137 135.643 397.172 133.572C398.246 131.463 398.764 128.951 398.725 126.036ZM432.052 164.695V76.3317H462.887V93.13H463.808C465.419 86.9169 467.969 82.3722 471.459 79.4957C474.988 76.6193 479.111 75.1811 483.828 75.1811C485.209 75.1811 486.57 75.2962 487.912 75.5263C489.293 75.718 490.616 76.0057 491.882 76.3892V103.485C490.309 102.948 488.373 102.545 486.071 102.277C483.77 102.009 481.795 101.874 480.146 101.874C477.039 101.874 474.24 102.584 471.747 104.003C469.292 105.384 467.356 107.339 465.937 109.871C464.517 112.364 463.808 115.298 463.808 118.673V164.695H432.052ZM568.484 105.096H539.26C539.106 103.293 538.474 101.74 537.361 100.436C536.249 99.1321 534.811 98.1349 533.047 97.4446C531.321 96.7159 529.403 96.3516 527.294 96.3516C524.571 96.3516 522.231 96.8501 520.276 97.8473C518.32 98.8445 517.361 100.263 517.399 102.104C517.361 103.408 517.917 104.616 519.067 105.729C520.256 106.841 522.538 107.704 525.913 108.317L543.862 111.539C552.913 113.188 559.644 115.969 564.055 119.881C568.504 123.754 570.747 128.951 570.785 135.471C570.747 141.761 568.868 147.226 565.148 151.866C561.466 156.469 556.423 160.036 550.018 162.567C543.651 165.06 536.383 166.306 528.214 166.306C514.714 166.306 504.148 163.545 496.516 158.022C488.923 152.499 484.685 145.212 483.803 136.161H515.328C515.75 138.961 517.131 141.128 519.47 142.662C521.848 144.158 524.839 144.906 528.445 144.906C531.359 144.906 533.756 144.407 535.636 143.41C537.553 142.413 538.531 140.994 538.57 139.153C538.531 137.465 537.687 136.123 536.038 135.126C534.428 134.129 531.896 133.323 528.445 132.71L512.797 129.948C503.784 128.376 497.034 125.384 492.547 120.974C488.06 116.563 485.835 110.887 485.874 103.945C485.835 97.8089 487.446 92.6122 490.706 88.3551C494.004 84.0597 498.702 80.7997 504.8 78.5753C510.937 76.3125 518.204 75.1811 526.604 75.1811C539.375 75.1811 549.442 77.8274 556.806 83.12C564.208 88.4126 568.101 95.7379 568.484 105.096Z" fill="white"/>
<path fill-rule="evenodd" clip-rule="evenodd" d="M116.067 30.8628C120.855 26.1451 126.612 22.5276 132.94 20.2622C123.366 23.7027 115.193 30.2045 109.688 38.7604C110.446 39.932 111.149 41.1343 111.797 42.3676C115.245 48.941 117.061 56.248 117.09 63.671C117.119 71.0941 115.36 78.415 111.963 85.0152C115.18 88.4074 118.089 92.0783 120.657 95.9846C122.308 98.4835 123.815 101.074 125.171 103.745C126.084 105.557 126.925 107.389 127.696 109.239C128.149 110.321 128.575 111.421 128.982 112.531C129.546 111.856 130.101 111.172 130.637 110.478C131.433 109.47 132.21 108.415 132.94 107.38C133.671 106.344 134.374 105.28 135.058 104.198C142.674 92.1143 146.706 78.118 146.684 63.8347C146.711 49.542 142.679 35.5354 135.058 23.4439C134.374 22.3617 133.671 21.2981 132.94 20.2622C132.2 19.2355 131.433 18.1996 130.646 17.173C125.849 11.0184 120.136 5.64876 113.715 1.24705C111.291 -0.414904 108.104 -0.415762 105.678 1.24487C96.4028 7.59614 88.6378 15.9425 82.9663 25.6946C76.4938 36.824 72.961 49.418 72.7008 62.2901V63.8162V66.1008C83.1602 68.7228 92.9369 73.5544 101.373 80.2704C103.764 82.1652 106.034 84.2071 108.171 86.3841C104.889 80.5188 102.925 74.0086 102.416 67.3069C101.906 60.6051 102.864 53.8729 105.221 47.5789C107.579 41.2849 111.28 35.5805 116.067 30.8628ZM77.5566 99.8045C71.6258 96.3312 64.9954 94.2235 58.1477 93.6347C51.3094 93.0467 44.426 93.9883 37.997 96.3909C38.9162 97.3263 39.9969 98.3147 41.0504 99.2033C46.7424 104.002 53.5086 107.355 60.7741 108.978C68.0396 110.601 75.5895 110.446 82.7823 108.526C82.8925 108.504 83.0008 108.473 83.1061 108.434C90.7036 115.439 95.4824 124.977 96.545 135.256L96.508 135.219C83.0643 140.042 68.5329 140.973 54.5834 137.907C40.634 134.841 27.8326 127.902 17.6501 117.887C16.7252 116.962 15.8558 116.037 14.9956 115.112C14.1355 114.187 13.2753 113.197 12.4614 112.208C7.46836 106.203 3.44278 99.4686 0.520386 92.2476C-0.580291 89.5279 0.099395 86.4207 2.23443 84.4083C8.85134 78.1713 16.5459 73.1659 24.9569 69.6432L24.9647 69.7047C38.8898 63.9187 54.2184 62.394 69.0104 65.3238C69.1785 75.2606 71.2213 85.0763 75.0316 94.2551C75.8024 96.1049 76.644 97.9547 77.5566 99.8045ZM130.027 141.204V139.677C130.027 138.91 130.018 138.151 129.953 137.393C129.739 130.008 128.443 122.694 126.105 115.685C125.047 112.491 123.771 109.372 122.285 106.353C120.949 103.608 119.438 100.951 117.762 98.3986C115.47 94.8417 112.874 91.4902 110.002 88.3819C109.411 87.7159 108.791 87.0592 108.153 86.4211C106.016 84.244 103.745 82.2022 101.355 80.3074C92.9184 73.5913 83.1417 68.7598 72.6823 66.1378C72.9856 76.9101 75.5972 87.4919 80.3406 97.1685C81.6806 99.9147 83.1912 102.574 84.8634 105.132C85.6033 105.779 86.3155 106.455 86.9999 107.158C89.93 110.117 92.4469 113.458 94.4825 117.091C95.9903 119.735 97.2297 122.524 98.1821 125.415C99.682 130.02 100.441 134.834 100.43 139.677C100.43 148.676 97.8056 157.48 92.877 165.009C87.9484 172.539 80.93 178.466 72.6823 182.066V213.245C88.8197 209.19 103.176 199.941 113.538 186.922C123.901 173.904 129.694 157.839 130.027 141.204Z" fill="white"/>
</svg>
