<svg width="577" height="215" viewBox="0 0 577 215" fill="none" xmlns="http://www.w3.org/2000/svg">
<path d="M131.157 141.024C131.158 157.92 125.518 174.333 115.129 187.658C105.796 199.631 93.1095 208.495 78.7447 213.161C76.2674 213.965 73.8149 212.053 73.8149 209.449V188.237C73.8149 185.295 75.5866 182.678 78.1455 181.226C84.5192 177.608 89.9632 172.514 94.0037 166.344C98.9319 158.819 101.558 150.019 101.561 141.024C101.563 139.073 101.442 137.124 101.2 135.188C99.9065 125.103 95.3305 115.723 88.1782 108.496C87.4938 107.793 86.7816 107.118 86.0417 106.471C79.755 100.879 72.0618 97.1082 63.7908 95.5648C55.5199 94.0214 46.9846 94.7638 39.1043 97.712C31.9394 90.4938 27.3612 81.1098 26.082 71.0201C40.0445 65.19 55.4317 63.6696 70.2651 66.6544C85.0985 69.6392 98.7001 76.9928 109.321 87.7696C109.95 88.3985 110.569 89.0459 111.171 89.7118C114.038 92.8165 116.634 96.1614 118.93 99.7097C126.522 111.345 130.754 124.852 131.157 138.739C131.157 139.498 131.157 140.256 131.157 141.024Z" fill="url(#paint0_linear_5010_9190)"/>
<path d="M101.2 135.188C91.9375 139.051 82 141.035 71.9646 141.024H70.494C57.0469 140.753 43.913 136.916 32.4344 129.906C20.9558 122.896 11.544 112.964 5.16081 101.125C3.79211 98.5906 2.57211 95.9798 1.50655 93.3062C0.503151 90.7886 1.13244 87.9222 3.09568 86.0538C9.7714 79.7006 17.5586 74.6086 26.0815 71.0391C27.3607 81.1288 31.9389 90.5127 39.1037 97.731C40.0841 98.7175 41.1045 99.6609 42.1651 100.561C48.3522 105.777 55.7998 109.278 63.7638 110.715C71.7277 112.151 79.9292 111.472 87.5487 108.746L88.1684 108.515C95.3207 115.742 99.8967 125.122 101.191 135.207L101.2 135.188Z" fill="url(#paint1_linear_5010_9190)"/>
<path d="M147.804 65.1817C147.822 84.4543 140.481 103.007 127.281 117.049C125.262 110.944 122.464 105.125 118.957 99.735C116.661 96.1867 114.065 92.8418 111.197 89.7371C115.858 82.2822 118.296 73.6532 118.228 64.8616C118.159 56.07 115.585 47.4802 110.809 40.0991C116.318 31.5477 124.489 25.0474 134.06 21.6016C143.034 34.3592 147.835 49.5839 147.804 65.1817Z" fill="url(#paint2_linear_5010_9190)"/>
<path d="M134.061 21.6421C127.733 23.9082 121.975 27.5265 117.188 32.2451C112.401 36.9636 108.7 42.669 106.344 48.9638C103.987 55.2586 103.031 61.9915 103.542 68.6936C104.052 75.3957 106.018 81.9059 109.302 87.7707C99.5765 77.8633 87.3118 70.8238 73.8516 67.4234C73.8516 66.665 73.8516 65.9066 73.8516 65.139C73.8511 52.0077 77.2602 39.1012 83.7451 27.6829C89.5005 17.549 97.5037 8.89551 107.116 2.37508C109.37 0.84588 112.321 0.849026 114.572 2.38285C122.172 7.56113 128.779 14.084 134.061 21.6421Z" fill="url(#paint3_linear_5010_9190)"/>
<path d="M163.566 48.4709H199.234L222.245 96.3345H223.165L246.177 48.4709H281.844L238.583 129.241V166.289H206.827V129.241L163.566 48.4709ZM298.258 167.9C288.67 167.9 280.462 166.001 273.636 162.205C266.809 158.369 261.574 153.038 257.93 146.212C254.287 139.347 252.465 131.388 252.465 122.337C252.465 113.286 254.287 105.347 257.93 98.5206C261.574 91.6555 266.809 86.3246 273.636 82.5277C280.462 78.6925 288.67 76.7749 298.258 76.7749C307.846 76.7749 316.053 78.6925 322.88 82.5277C329.707 86.3246 334.942 91.6555 338.585 98.5206C342.229 105.347 344.051 113.286 344.051 122.337C344.051 131.388 342.229 139.347 338.585 146.212C334.942 153.038 329.707 158.369 322.88 162.205C316.053 166.001 307.846 167.9 298.258 167.9ZM298.488 144.428C301.173 144.428 303.493 143.527 305.449 141.724C307.405 139.922 308.92 137.352 309.994 134.016C311.068 130.679 311.604 126.71 311.604 122.107C311.604 117.467 311.068 113.497 309.994 110.199C308.92 106.862 307.405 104.293 305.449 102.49C303.493 100.687 301.173 99.7862 298.488 99.7862C295.65 99.7862 293.215 100.687 291.182 102.49C289.149 104.293 287.596 106.862 286.522 110.199C285.448 113.497 284.911 117.467 284.911 122.107C284.911 126.71 285.448 130.679 286.522 134.016C287.596 137.352 289.149 139.922 291.182 141.724C293.215 143.527 295.65 144.428 298.488 144.428ZM399.655 127.63V77.9254H431.411V166.289H401.266V149.491H400.346C398.428 155.129 395.072 159.539 390.278 162.722C385.484 165.867 379.789 167.44 373.192 167.44C367.017 167.44 361.61 166.021 356.969 163.183C352.367 160.344 348.781 156.433 346.211 151.447C343.68 146.461 342.395 140.746 342.357 134.303V77.9254H374.113V127.63C374.151 132.002 375.263 135.435 377.449 137.928C379.674 140.42 382.78 141.667 386.769 141.667C389.415 141.667 391.697 141.111 393.615 139.999C395.571 138.848 397.066 137.237 398.102 135.166C399.176 133.057 399.694 130.545 399.655 127.63ZM432.982 166.289V77.9254H463.817V94.7237H464.738C466.348 88.5107 468.899 83.9659 472.389 81.0895C475.917 78.2131 480.04 76.7749 484.758 76.7749C486.138 76.7749 487.5 76.8899 488.842 77.12C490.223 77.3118 491.546 77.5994 492.812 77.983V105.079C491.239 104.542 489.302 104.139 487.001 103.871C484.7 103.602 482.725 103.468 481.076 103.468C477.969 103.468 475.169 104.178 472.677 105.597C470.222 106.977 468.285 108.933 466.866 111.464C465.447 113.957 464.738 116.891 464.738 120.266V166.289H432.982ZM569.414 106.69H540.19C540.036 104.887 539.403 103.334 538.291 102.03C537.179 100.726 535.741 99.7287 533.977 99.0384C532.251 98.3097 530.333 97.9453 528.224 97.9453C525.501 97.9453 523.161 98.4439 521.205 99.441C519.249 100.438 518.29 101.857 518.329 103.698C518.29 105.002 518.847 106.21 519.997 107.322C521.186 108.435 523.468 109.298 526.843 109.911L544.792 113.133C553.843 114.782 560.574 117.562 564.984 121.474C569.433 125.348 571.677 130.545 571.715 137.065C571.677 143.354 569.798 148.82 566.077 153.46C562.396 158.062 557.352 161.629 550.947 164.161C544.581 166.653 537.313 167.9 529.144 167.9C515.644 167.9 505.078 165.138 497.446 159.616C489.852 154.093 485.614 146.806 484.732 137.755H516.258C516.68 140.555 518.06 142.722 520.4 144.256C522.778 145.751 525.769 146.499 529.374 146.499C532.289 146.499 534.686 146.001 536.565 145.004C538.483 144.006 539.461 142.587 539.499 140.746C539.461 139.059 538.617 137.717 536.968 136.719C535.357 135.722 532.826 134.917 529.374 134.303L513.727 131.542C504.714 129.969 497.964 126.978 493.477 122.567C488.989 118.157 486.765 112.481 486.803 105.539C486.765 99.4027 488.376 94.206 491.636 89.9489C494.934 85.6534 499.632 82.3935 505.73 80.169C511.866 77.9062 519.134 76.7749 527.533 76.7749C540.305 76.7749 550.372 79.4212 557.736 84.7138C565.138 90.0064 569.03 97.3317 569.414 106.69Z" fill="white"/>
<defs>
<linearGradient id="paint0_linear_5010_9190" x1="6.77488" y1="160.915" x2="84.4864" y2="222.302" gradientUnits="userSpaceOnUse">
<stop stop-color="#109464"/>
<stop offset="0.509773" stop-color="#5FE493"/>
<stop offset="1" stop-color="#A1FF8B"/>
</linearGradient>
<linearGradient id="paint1_linear_5010_9190" x1="20.5135" y1="141.421" x2="84.1833" y2="146.841" gradientUnits="userSpaceOnUse">
<stop stop-color="#A1FF8B"/>
<stop offset="0.509773" stop-color="#5FE493"/>
<stop offset="1" stop-color="#109464"/>
</linearGradient>
<linearGradient id="paint2_linear_5010_9190" x1="129.165" y1="34.5704" x2="90.9123" y2="93.7104" gradientUnits="userSpaceOnUse">
<stop stop-color="#109464"/>
<stop offset="0.328125" stop-color="#5FE493"/>
<stop offset="0.604167" stop-color="#A1FF8B"/>
<stop offset="1" stop-color="#1A9E6A"/>
</linearGradient>
<linearGradient id="paint3_linear_5010_9190" x1="52.8829" y1="67.8862" x2="70.24" y2="18.5903" gradientUnits="userSpaceOnUse">
<stop stop-color="#109464"/>
<stop offset="0.509773" stop-color="#5FE493"/>
<stop offset="1" stop-color="#A1FF8B"/>
</linearGradient>
</defs>
</svg>
