<svg width="15" height="16" viewBox="0 0 15 16" fill="none" xmlns="http://www.w3.org/2000/svg">
<path fill-rule="evenodd" clip-rule="evenodd" d="M7.23348 5.19633C7.23348 3.46887 8.63347 2.0686 10.3601 2.0686C11.3737 2.0686 12.1831 2.54807 12.7255 3.24388C13.3081 3.1247 13.8558 2.90916 14.3514 2.61511C14.156 3.22601 13.7425 3.73963 13.2035 4.06466C13.2039 4.06571 13.2044 4.06677 13.2048 4.06782C13.7335 4.00364 14.2365 3.86305 14.705 3.65549L14.7038 3.65718C14.3668 4.16186 13.9432 4.60739 13.4563 4.97037C13.4824 5.14675 13.4957 5.3243 13.4957 5.50083C13.4957 9.18713 10.6874 13.4746 5.52135 13.4746C3.93918 13.4746 2.46556 13.0111 1.22517 12.2152C0.992754 12.0661 0.92523 11.7568 1.07435 11.5244C1.08753 11.5038 1.10195 11.4846 1.11746 11.4667C1.20594 11.3202 1.3745 11.231 1.55552 11.2523C2.47079 11.3601 3.3858 11.2486 4.19231 10.8963C3.39239 10.5434 2.77142 9.85978 2.50216 9.01977C2.45371 8.86863 2.48847 8.70314 2.59363 8.58425C2.59728 8.58014 2.60099 8.57609 2.60476 8.57213C1.96403 8.00822 1.55985 7.18211 1.55985 6.26146V6.22762C1.55985 6.06817 1.64424 5.92062 1.78167 5.83977C1.82683 5.8132 1.8755 5.79514 1.92544 5.78561C1.70561 5.36158 1.58128 4.87988 1.58128 4.36961C1.58128 3.90168 1.58396 3.31195 1.91344 2.78084C1.98731 2.66178 2.1077 2.58918 2.23652 2.57198C2.42601 2.5124 2.64099 2.56972 2.77418 2.73305C3.86548 4.07129 5.44078 4.99586 7.23378 5.23964L7.23348 5.19633ZM5.52135 12.4746C4.73399 12.4746 3.97794 12.3436 3.2726 12.1024C4.13024 11.9538 4.95319 11.616 5.66231 11.0602C5.81223 10.9427 5.87194 10.7436 5.81138 10.563C5.75082 10.3824 5.58312 10.2595 5.39267 10.2561C4.6898 10.2437 4.06724 9.89719 3.67805 9.36848C3.8684 9.35309 4.0544 9.32042 4.23457 9.2717C4.43615 9.21719 4.57375 9.03117 4.56686 8.82246C4.55997 8.61375 4.41041 8.43721 4.20568 8.39611C3.42706 8.2398 2.79895 7.66767 2.56181 6.92178C2.76267 6.97028 2.97114 6.99914 3.18494 7.00613C3.38575 7.0127 3.56659 6.88536 3.62807 6.69408C3.68955 6.5028 3.61679 6.29394 3.44976 6.18227C2.86536 5.79158 2.48128 5.12467 2.48128 4.36961C2.48128 4.20216 2.48364 4.05272 2.49367 3.91722C3.85127 5.29916 5.70885 6.18934 7.77601 6.29342C7.93237 6.30129 8.0834 6.23546 8.18407 6.11556C8.28475 5.99565 8.32344 5.83551 8.28863 5.68287C8.25267 5.5252 8.23348 5.36287 8.23348 5.19633C8.23348 4.02088 9.18604 3.0686 10.3601 3.0686C11.5944 3.0686 12.4957 4.21212 12.4957 5.50083C12.4957 8.75712 10.0203 12.4746 5.52135 12.4746Z" fill="white"/>
</svg>
